<svg xmlns="http://www.w3.org/2000/svg" shape-rendering="geometricPrecision" text-rendering="geometricPrecision" image-rendering="optimizeQuality" fill-rule="evenodd" clip-rule="evenodd" viewBox="0 0 512 449.31"><path fill="#9E9087" d="M16.53 314.24c85.59 157.41 341.19 203.4 481.8-5.25 12.65-18.77 12.35-32.74 3.14-65.8-8.79-31.59-21.72-60.1-37.61-85.23C502.02 106.74 516.55 52.01 510.78.97 461-5.38 413.81 19.82 368.15 63.66c-41.49-24.69-86.58-36.01-127.82-31.96-33.29 4.09-65.46 15.96-94.81 33.62a.36.36 0 00-.08-.12C99.28 20.41 51.57-5.45 1.22.97-4.6 52.43 10.2 107.65 49.09 159.23c-16.72 25.67-29.6 53.79-37.48 83.03-9.03 33.5-11.45 41.86 4.92 71.98z"/><path fill="#7B6D68" d="M61.72 139.05C40.8 106.65 32.99 72.67 36.6 40.77c31.29-3.99 61.11 9.97 90 35.24l.03.02c-24.66 17.01-46.75 38.54-64.91 63.02zM451.29 137.53c20.22-31.96 27.74-65.41 24.19-96.83-30.69-3.91-59.96 9.44-88.33 33.79 23.65 16.27 45.63 37.45 64.14 63.04z"/><path fill="#464654" d="M252.85 408.26c-91.81-12.59-162.77-66.65-190.19-131.88 21.8-49.26 51.76-78.51 87.76-92.31 56.6-21.69 94.55 9.16 73.57 71.19-3.38 10-7.88 20.59-12.89 31.5-28.5 51.81-16.7 92.87 41.75 121.5zM259.14 408.26c91.82-12.59 162.77-66.65 190.2-131.88-21.8-49.26-51.76-78.51-87.77-92.31-56.59-21.69-94.54 9.16-73.56 71.19 3.38 10 7.88 20.59 12.88 31.5 28.51 51.81 16.7 92.87-41.75 121.5z"/><ellipse fill="#fff" cx="256.27" cy="352.86" rx="79.51" ry="60.19"/><ellipse fill="#464654" cx="256.27" cy="333.63" rx="43.28" ry="31.03"/><path fill="#969A9F" fill-rule="nonzero" d="M182.77 193.56c7.41 0 14.13 3.01 18.98 7.86 4.86 4.86 7.87 11.57 7.87 18.98s-3.01 14.13-7.87 18.98a26.745 26.745 0 01-18.98 7.87c-7.41 0-14.12-3.01-18.98-7.87a26.736 26.736 0 01-7.86-18.98c0-7.41 3-14.12 7.86-18.98 4.86-4.85 11.57-7.86 18.98-7.86zm16.7 10.15a23.55 23.55 0 00-16.7-6.91c-6.52 0-12.43 2.64-16.69 6.91a23.508 23.508 0 00-6.91 16.69c0 6.52 2.64 12.43 6.91 16.7a23.55 23.55 0 0016.69 6.91 23.591 23.591 0 0023.61-23.61c0-6.52-2.65-12.43-6.91-16.69z"/><circle fill="#283137" cx="182.77" cy="220.4" r="19.82"/><circle fill="#fff" cx="177.08" cy="217.71" r="6.9"/><path fill="#969A9F" fill-rule="nonzero" d="M329.22 193.56c7.41 0 14.13 3.01 18.98 7.86 4.86 4.86 7.87 11.57 7.87 18.98s-3.01 14.13-7.87 18.98a26.745 26.745 0 01-18.98 7.87c-7.41 0-14.12-3.01-18.98-7.87a26.778 26.778 0 01-7.86-18.98c0-7.41 3.01-14.12 7.86-18.98 4.86-4.85 11.57-7.86 18.98-7.86zm16.7 10.15a23.55 23.55 0 00-16.7-6.91c-6.52 0-12.42 2.64-16.69 6.91a23.508 23.508 0 00-6.91 16.69c0 6.52 2.64 12.43 6.91 16.7 4.27 4.26 10.17 6.91 16.69 6.91a23.591 23.591 0 0023.61-23.61c0-6.52-2.65-12.43-6.91-16.69z"/><circle fill="#283137" cx="329.22" cy="220.4" r="19.82"/><circle fill="#fff" cx="323.53" cy="217.71" r="6.9"/></svg>